<svg version="1.1" id="Layer_1" xmlns="http://www.w3.org/2000/svg" xmlns:xlink="http://www.w3.org/1999/xlink" x="0px" y="0px"
	 width="100%" viewBox="0 0 500 500" enable-background="new 0 0 500 500" xml:space="preserve">
<path fill="#010101" opacity="1.000000" stroke="none" 
	d="
M442.000000,501.000000 
	C314.979095,501.000000 187.958206,501.000000 60.167469,500.730896 
	C60.626846,499.127777 61.826588,497.765106 63.090141,496.464478 
	C70.652504,488.680023 67.543365,476.485870 57.044395,472.518799 
	C57.003590,466.060394 57.010918,460.067078 57.484421,454.039215 
	C65.531204,454.000458 73.113693,454.077057 80.690247,453.899536 
	C81.753044,453.874634 82.786667,452.604523 83.899628,451.520691 
	C83.627235,449.155823 83.289017,447.181061 83.297836,445.002960 
	C83.136482,444.535065 82.628548,444.040222 82.119644,444.039154 
	C62.511559,443.999969 42.903339,443.993286 23.295383,444.056732 
	C22.581820,444.059052 21.870674,444.808716 21.073387,445.623596 
	C21.034849,448.285980 21.081329,450.534851 21.188765,453.241364 
	C30.160143,453.824493 39.070568,453.949951 48.004894,454.301880 
	C48.028797,454.528290 48.175606,454.959381 48.113121,455.425903 
	C48.035980,459.716187 47.851887,463.549225 48.059650,467.360840 
	C48.229362,470.474457 47.438267,472.381470 44.419815,474.023987 
	C35.938259,478.639313 35.228107,491.289307 42.722191,497.481171 
	C43.749374,498.329834 44.253643,499.811432 45.000004,501.000000 
	C30.344252,501.000000 15.688504,501.000000 1.040038,501.000000 
	C1.047320,334.333313 1.047320,167.666656 1.047320,1.000000 
	C15.417321,1.000000 29.740002,1.000000 44.836456,1.277622 
	C44.936291,2.278148 44.374382,3.172362 43.571186,3.697613 
	C34.973186,9.320283 36.216934,23.369209 42.644661,26.695551 
	C48.649361,29.802975 48.048508,34.079060 47.987358,38.918846 
	C47.949600,41.907444 47.856052,44.895332 47.841568,47.951813 
	C47.895588,48.020088 48.046295,47.932888 47.574509,47.965767 
	C39.686264,47.999462 32.269135,47.950623 24.854002,48.050156 
	C23.623541,48.066669 22.401770,48.730724 21.105049,49.525135 
	C21.077293,52.276104 21.120472,54.597481 21.253231,57.354752 
	C41.276962,57.858414 61.211178,57.953289 81.145050,57.905605 
	C82.044327,57.903458 82.940521,56.610981 83.902695,55.503464 
	C83.923447,53.405994 83.879646,51.724556 83.910294,49.600445 
	C82.575172,48.773296 81.170937,48.080357 79.755119,48.055820 
	C72.155922,47.924126 64.553841,47.958832 57.023808,47.978554 
	C57.094864,48.021038 57.198448,47.891865 57.125717,47.435844 
	C57.043373,42.835442 57.213997,38.680210 56.965614,34.550186 
	C56.775997,31.397337 57.626705,29.539177 60.668766,27.988020 
	C67.169495,24.673277 69.467903,14.691279 65.220306,8.824956 
	C63.153492,5.970489 60.427559,3.593265 58.000000,1.000000 
	C186.020889,1.000000 314.041779,1.000000 442.834778,1.275566 
	C440.045471,5.085120 435.027710,7.232272 434.824493,13.604784 
	C434.570587,21.566700 437.245575,27.168312 444.936920,30.483635 
	C444.937347,36.591324 444.884155,42.235210 444.872223,47.941639 
	C444.913483,48.004185 445.039856,47.923649 444.568878,47.959393 
	C436.674927,47.998093 429.251251,47.951000 421.829681,48.053837 
	C420.609131,48.070751 419.397675,48.746155 418.111450,49.541748 
	C418.085144,52.257324 418.129364,54.548382 418.221588,57.290703 
	C438.557007,57.824787 458.844452,57.917034 479.131927,57.941856 
	C479.701111,57.942554 480.271118,57.222702 480.919189,56.416702 
	C480.941284,53.706451 480.884979,51.418343 480.755280,48.685966 
	C471.781769,48.128933 462.881683,48.016159 453.993286,47.441574 
	C454.000366,43.011066 454.269409,39.017242 453.908173,35.081272 
	C453.594879,31.667803 454.901764,29.658566 457.718475,28.067020 
	C466.921875,22.866753 466.595947,8.041776 456.893524,3.349692 
	C456.075012,2.953856 455.622528,1.801098 455.000000,0.999995 
	C470.321960,1.000000 485.643921,1.000000 500.959320,1.000002 
	C500.952759,167.666672 500.952759,334.333344 500.952759,501.000000 
	C486.582764,501.000000 472.260040,501.000000 457.215210,500.690979 
	C456.904327,499.863708 457.218414,499.201660 457.741180,498.848694 
	C466.529236,492.915833 466.821228,481.630280 459.298035,476.290161 
	C453.746460,472.349457 453.870819,467.868256 453.985596,462.575439 
	C454.046722,459.756744 453.995056,456.935638 454.460815,454.063354 
	C462.337921,454.005615 469.749207,454.051483 477.158325,453.944061 
	C478.389832,453.926208 479.611633,453.239990 480.915283,452.439026 
	C480.938629,449.722015 480.884521,447.428650 480.764771,444.688660 
	C460.414825,444.163696 440.130554,444.076202 419.846191,444.055084 
	C419.294952,444.054504 418.742981,444.770172 418.115906,445.572510 
	C418.084503,448.269043 418.128601,450.544922 418.218109,453.274109 
	C427.188385,453.841919 436.113251,453.956421 444.986084,454.031189 
	C444.934052,453.991425 444.853119,454.094360 444.918579,454.552094 
	C444.948090,460.667847 444.912201,466.325867 444.562012,472.127319 
	C432.212158,476.618439 432.578705,491.724701 440.132294,497.833984 
	C441.024689,498.555725 441.390259,499.928802 442.000000,501.000000 
M235.089157,90.208832 
	C235.076080,89.729301 235.062988,89.249779 235.393692,88.043510 
	C235.592438,86.409828 235.874695,84.781334 235.976791,83.141640 
	C236.830139,69.435616 232.283386,56.776222 226.998901,44.674446 
	C222.602112,34.605560 217.267029,24.698933 207.829269,17.808987 
	C198.605667,11.075377 188.745804,12.763864 184.060730,23.083654 
	C173.683121,45.942497 176.657913,67.986069 189.281494,89.584908 
	C189.418182,89.861404 189.640396,90.010193 190.099579,90.693298 
	C195.736298,98.056648 202.644241,103.499481 211.968079,105.423874 
	C222.686066,107.636024 231.869904,101.838249 234.676376,90.954155 
	C234.676376,90.954155 234.648590,90.800812 235.089157,90.208832 
M253.577057,88.105217 
	C253.913849,80.502968 254.250656,72.900726 254.587448,65.298477 
	C254.118179,65.268768 253.648911,65.239067 253.179642,65.209366 
	C252.750610,72.742683 252.321564,80.276009 251.211044,87.940018 
	C250.033539,87.285080 248.856018,86.630135 248.018326,86.164207 
	C244.510452,100.381653 239.224808,115.627831 250.408356,130.232574 
	C256.377106,122.178040 258.682861,110.498024 256.330933,101.088692 
	C255.325668,97.066895 254.341354,93.039856 253.577057,88.105217 
M225.710068,275.132172 
	C224.448181,275.517700 223.209503,276.112701 221.920731,276.255463 
	C212.055023,277.348419 205.164307,281.767365 202.477554,291.993683 
	C201.466675,295.841309 194.356873,298.224457 190.100815,296.251923 
	C190.727448,294.410950 191.405823,292.585815 191.973083,290.726715 
	C204.453033,249.826035 216.822891,208.891312 229.474503,168.043869 
	C231.954910,160.035492 234.557312,152.318176 231.378830,143.929367 
	C230.750427,142.270844 230.752960,140.315231 230.734604,138.493912 
	C230.665100,131.593887 230.706635,124.692749 230.706635,117.651840 
	C205.058456,122.070107 189.400223,113.013710 175.669678,86.561226 
	C175.107193,87.426140 174.544693,88.291061 173.054657,89.025360 
	C145.064423,89.019653 117.073837,88.946465 89.084312,89.085556 
	C85.167496,89.105019 83.779358,88.005394 83.917809,83.991234 
	C84.190964,76.071365 83.998344,68.135429 83.998344,60.303696 
	C62.676121,60.303696 41.944450,60.303696 21.225174,60.303696 
	C21.225174,187.674042 21.225174,314.741333 21.225174,442.024902 
	C23.263632,442.024902 25.078773,442.024902 27.315222,442.806549 
	C45.244053,442.866302 63.172882,442.936493 81.101738,442.944916 
	C81.772362,442.945221 82.443260,442.344482 83.870377,441.590271 
	C83.925232,432.430145 83.980087,423.269989 84.963585,414.014557 
	C98.618683,414.010895 112.274292,413.953796 125.928108,414.083801 
	C127.340385,414.097198 128.742050,415.224609 130.043365,416.787292 
	C130.402008,425.280182 128.241745,434.151520 133.436783,441.943787 
	C138.436798,449.443573 143.277618,457.093872 148.880707,464.126465 
	C151.295929,467.157867 155.216660,470.211700 158.863281,470.827087 
	C174.065140,473.392700 189.405640,475.183960 204.730957,476.949890 
	C211.880951,477.773834 217.827057,479.644562 222.104126,486.266876 
	C224.361740,489.762360 228.415802,493.545929 232.234406,494.305542 
	C242.505707,496.348602 253.067307,497.398865 263.550781,497.757141 
	C271.561005,498.030914 279.617920,496.439056 287.672089,496.052155 
	C298.031891,495.554443 307.221954,492.331329 312.944214,483.443329 
	C319.351013,473.492126 328.020447,467.597809 339.392914,465.246857 
	C339.877106,465.146790 340.430267,465.157745 340.832764,464.917999 
	C346.661407,461.445831 353.579987,458.985596 358.059662,454.231049 
	C368.455566,443.197266 371.523163,428.945465 373.013702,414.016083 
	C387.997894,414.044952 402.982117,414.073822 417.996765,415.026672 
	C417.998444,420.183868 417.890015,425.344269 418.038116,430.497253 
	C418.148712,434.345551 418.590546,438.184326 419.312744,442.805939 
	C437.906891,442.869019 456.501007,442.942230 475.095184,442.954132 
	C475.763580,442.954559 476.432373,442.350403 477.978577,442.002838 
	C482.668365,442.598236 480.933502,439.006836 480.934601,437.051239 
	C481.004791,313.078369 480.997864,189.105453 480.997894,65.132545 
	C480.997894,63.524162 480.997833,61.915779 480.997833,60.254906 
	C459.752502,60.254906 439.019165,60.254906 418.002991,60.254906 
	C418.002991,67.975243 417.730438,75.456894 418.101013,82.906548 
	C418.338745,87.685654 416.915863,89.155724 411.996918,89.122620 
	C384.007629,88.934250 356.015900,89.101700 327.593109,88.985992 
	C327.593109,88.985992 327.132355,88.963158 326.822540,88.288223 
	C326.330872,88.553284 325.839203,88.818344 324.904663,89.500000 
	C323.164276,92.332039 321.594788,95.287529 319.653778,97.974648 
	C311.420807,109.372322 301.402069,118.519485 286.842041,120.326530 
	C281.457611,120.994797 275.828186,119.689194 271.089905,119.341080 
	C270.013489,129.292892 268.811584,139.497742 267.859406,149.725830 
	C267.549225,153.057800 267.162384,156.656708 268.047852,159.783112 
	C276.070496,188.109283 284.497314,216.320892 292.541443,244.641129 
	C298.435455,265.391602 303.932770,286.254791 308.845459,306.934174 
	C307.463501,306.087555 305.896759,305.440582 304.730164,304.361176 
	C298.178741,298.299225 291.505676,292.343353 285.316711,285.924500 
	C281.539368,282.006866 277.687195,278.737793 272.052704,277.181213 
	C264.751526,253.570862 257.450348,229.960510 250.149155,206.350159 
	C249.774155,206.360138 249.399155,206.370117 249.024139,206.380096 
	C241.474915,229.226456 233.925674,252.072800 225.710068,275.132172 
M265.372681,89.134300 
	C268.211365,104.381638 279.400513,108.339561 288.698914,106.726616 
	C298.732605,104.986122 306.121124,98.906227 311.980652,90.838875 
	C312.288544,90.414986 312.065582,89.605537 312.766571,88.850586 
	C313.883148,87.484795 315.197083,86.235764 316.085175,84.734787 
	C323.323090,72.501862 325.141205,58.997097 323.771759,45.253792 
	C323.031372,37.823639 321.131073,30.093618 317.840881,23.445732 
	C314.301544,16.294397 306.009613,12.022607 298.153076,17.142628 
	C293.257751,20.332850 288.491119,24.422270 285.137177,29.151049 
	C272.528809,46.927818 265.281830,66.644310 265.372681,89.134300 
M306.700684,11.143500 
	C305.649384,9.776588 304.598083,8.409677 303.546783,7.042764 
	C303.449066,12.094533 303.449066,12.094533 306.700684,11.143500 
z"/>
<path fill="#9F8F67" opacity="1.000000" stroke="none" 
	d="
M57.536816,1.000000 
	C60.427559,3.593265 63.153492,5.970489 65.220306,8.824956 
	C69.467903,14.691279 67.169495,24.673277 60.668766,27.988020 
	C57.626705,29.539177 56.775997,31.397337 56.965614,34.550186 
	C57.213997,38.680210 57.043373,42.835442 56.655273,47.475006 
	C53.434227,47.941303 50.610893,47.912422 47.787552,47.883541 
	C47.856052,44.895332 47.949600,41.907444 47.987358,38.918846 
	C48.048508,34.079060 48.649361,29.802975 42.644661,26.695551 
	C36.216934,23.369209 34.973186,9.320283 43.571186,3.697613 
	C44.374382,3.172362 44.936291,2.278148 45.305115,1.277622 
	C49.024544,1.000000 53.049088,1.000000 57.536816,1.000000 
z"/>
<path fill="#9E8F67" opacity="1.000000" stroke="none" 
	d="
M453.994293,454.115601 
	C453.995056,456.935638 454.046722,459.756744 453.985596,462.575439 
	C453.870819,467.868256 453.746460,472.349457 459.298035,476.290161 
	C466.821228,481.630280 466.529236,492.915833 457.741180,498.848694 
	C457.218414,499.201660 456.904327,499.863708 456.746582,500.690979 
	C452.310760,501.000000 447.621490,501.000000 442.466125,501.000000 
	C441.390259,499.928802 441.024689,498.555725 440.132294,497.833984 
	C432.578705,491.724701 432.212158,476.618439 444.854492,471.829285 
	C445.683807,465.577057 445.906311,459.766296 446.329224,453.950562 
	C446.529694,453.945618 446.930084,453.969330 447.383240,453.975830 
	C449.944885,453.881927 452.053375,453.781494 454.219391,453.828033 
	C454.276917,453.975006 453.994293,454.115601 453.994293,454.115601 
z"/>
<path fill="#9E8F67" opacity="1.000000" stroke="none" 
	d="
M454.539368,0.999995 
	C455.622528,1.801098 456.075012,2.953856 456.893524,3.349692 
	C466.595947,8.041776 466.921875,22.866753 457.718475,28.067020 
	C454.901764,29.658566 453.594879,31.667803 453.908173,35.081272 
	C454.269409,39.017242 454.000366,43.011066 454.133728,47.492180 
	C454.262421,48.004589 454.184296,48.292896 453.735596,48.209255 
	C451.158936,48.087902 449.030945,48.050190 446.718140,48.022697 
	C446.533325,48.032921 446.163116,48.028667 446.106628,47.560390 
	C445.661224,41.401352 445.272278,35.710590 444.883331,30.019831 
	C437.245575,27.168312 434.570587,21.566700 434.824493,13.604784 
	C435.027710,7.232272 440.045471,5.085120 443.303406,1.275566 
	C446.692902,1.000000 450.385834,1.000000 454.539368,0.999995 
z"/>
<path fill="#9E8E66" opacity="1.000000" stroke="none" 
	d="
M57.092529,472.983826 
	C67.543365,476.485870 70.652504,488.680023 63.090141,496.464478 
	C61.826588,497.765106 60.626846,499.127777 59.698811,500.730896 
	C55.310745,501.000000 50.621487,501.000000 45.466118,501.000000 
	C44.253643,499.811432 43.749374,498.329834 42.722191,497.481171 
	C35.228107,491.289307 35.938259,478.639313 44.419815,474.023987 
	C47.438267,472.381470 48.229362,470.474457 48.059650,467.360840 
	C47.851887,463.549225 48.035980,459.716187 48.466400,455.259460 
	C55.627110,453.273773 55.862671,453.566071 56.051365,460.348541 
	C56.168716,464.566681 56.730316,468.772491 57.092529,472.983826 
z"/>
<path fill="#DFD3B9" opacity="1.000000" stroke="none" 
	d="
M309.606903,307.067749 
	C303.932770,286.254791 298.435455,265.391602 292.541443,244.641129 
	C284.497314,216.320892 276.070496,188.109283 268.047852,159.783112 
	C267.162384,156.656708 267.549225,153.057800 267.859406,149.725830 
	C268.811584,139.497742 270.013489,129.292892 271.089905,119.341080 
	C275.828186,119.689194 281.457611,120.994797 286.842041,120.326530 
	C301.402069,118.519485 311.420807,109.372322 319.653778,97.974648 
	C321.594788,95.287529 323.164276,92.332039 325.572418,89.255867 
	C326.537537,88.995544 326.834930,88.979355 327.132355,88.963158 
	C327.132355,88.963158 327.593109,88.985992 328.151123,89.294952 
	C330.523651,89.735680 332.338043,89.980453 334.152679,89.982178 
	C359.799683,90.006561 385.446716,89.996162 411.093750,89.998459 
	C417.999664,89.999069 418.009308,90.005623 418.009186,96.739243 
	C418.007324,202.158508 418.002747,307.577789 417.530273,412.991028 
	C401.763458,412.994873 386.465088,413.004700 371.073914,412.621399 
	C368.229095,403.154724 365.477112,394.081146 362.659607,384.659973 
	C360.737000,379.027679 358.386169,373.855682 357.148041,368.429749 
	C355.606445,361.673920 355.539948,354.569183 353.860016,347.859589 
	C348.620178,326.931946 335.857208,313.623016 313.999420,309.922119 
	C312.419434,309.654602 311.065796,308.050446 309.606903,307.067749 
z"/>
<path fill="#DED3B9" opacity="1.000000" stroke="none" 
	d="
M173.982193,89.155975 
	C174.544693,88.291061 175.107193,87.426140 175.669128,86.560852 
	C189.400223,113.013710 205.058456,122.070107 230.706635,117.651840 
	C230.706635,124.692749 230.665100,131.593887 230.734604,138.493912 
	C230.752960,140.315231 230.750427,142.270844 231.378830,143.929367 
	C234.557312,152.318176 231.954910,160.035492 229.474503,168.043869 
	C216.822891,208.891312 204.453033,249.826035 191.973083,290.726715 
	C191.405823,292.585815 190.727448,294.410950 189.838562,296.881287 
	C188.169113,298.575836 186.858353,299.810089 185.338104,300.677063 
	C178.709442,304.457092 171.930923,307.981140 165.379166,311.887238 
	C159.589203,315.339203 155.886307,320.626190 156.027481,327.409546 
	C156.177612,334.624084 157.431900,341.815674 157.940948,349.243408 
	C157.433502,350.304413 157.189163,351.139313 156.972733,351.984924 
	C157.000656,351.995667 156.961365,351.950409 156.612640,351.910339 
	C152.042084,357.580292 147.820267,363.290314 143.436386,369.139130 
	C143.114182,369.662048 142.954056,370.046173 142.575562,370.714111 
	C139.862900,376.868805 136.652359,382.551910 135.052414,388.657166 
	C132.969894,396.603851 132.165985,404.885651 130.356049,413.014740 
	C114.600365,413.001678 99.300446,412.997101 83.998314,412.524353 
	C83.994080,306.832977 84.025200,201.609772 83.886711,96.386780 
	C83.880165,91.414818 85.085907,89.829391 90.252899,89.881081 
	C116.223091,90.140831 142.197357,90.015289 168.170044,89.959389 
	C170.108002,89.955223 172.044830,89.435844 173.982193,89.155975 
z"/>
<path fill="#EAE3D0" opacity="1.000000" stroke="none" 
	d="
M417.998779,412.997040 
	C418.002747,307.577789 418.007324,202.158508 418.009186,96.739243 
	C418.009308,90.005623 417.999664,89.999069 411.093750,89.998459 
	C385.446716,89.996162 359.799683,90.006561 334.152679,89.982178 
	C332.338043,89.980453 330.523651,89.735680 328.367096,89.376030 
	C356.015900,89.101700 384.007629,88.934250 411.996918,89.122620 
	C416.915863,89.155724 418.338745,87.685654 418.101013,82.906548 
	C417.730438,75.456894 418.002991,67.975243 418.002991,60.254906 
	C439.019165,60.254906 459.752502,60.254906 480.997833,60.254906 
	C480.997833,61.915779 480.997894,63.524162 480.997894,65.132545 
	C480.997864,189.105453 481.004791,313.078369 480.934601,437.051239 
	C480.933502,439.006836 482.668365,442.598236 477.064819,442.005432 
	C457.062347,442.014465 437.973633,442.020905 418.884888,442.027344 
	C418.590546,438.184326 418.148712,434.345551 418.038116,430.497253 
	C417.890015,425.344269 417.998444,420.183868 417.985229,414.288147 
	C417.982056,413.365417 417.990417,413.181213 417.998779,412.997040 
z"/>
<path fill="#EAE3D0" opacity="1.000000" stroke="none" 
	d="
M173.518433,89.090668 
	C172.044830,89.435844 170.108002,89.955223 168.170044,89.959389 
	C142.197357,90.015289 116.223091,90.140831 90.252899,89.881081 
	C85.085907,89.829391 83.880165,91.414818 83.886711,96.386780 
	C84.025200,201.609772 83.994080,306.832977 84.009262,412.803650 
	C84.026588,413.737335 84.030769,413.923584 84.034943,414.109863 
	C83.980087,423.269989 83.925232,432.430145 83.016037,441.803925 
	C63.739109,442.020020 45.316509,442.022461 26.893913,442.024902 
	C25.078773,442.024902 23.263632,442.024902 21.225174,442.024902 
	C21.225174,314.741333 21.225174,187.674042 21.225174,60.303696 
	C41.944450,60.303696 62.676121,60.303696 83.998344,60.303696 
	C83.998344,68.135429 84.190964,76.071365 83.917809,83.991234 
	C83.779358,88.005394 85.167496,89.105019 89.084312,89.085556 
	C117.073837,88.946465 145.064423,89.019653 173.518433,89.090668 
z"/>
<path fill="#687681" opacity="1.000000" stroke="none" 
	d="
M130.811829,413.023224 
	C132.165985,404.885651 132.969894,396.603851 135.052414,388.657166 
	C136.652359,382.551910 139.862900,376.868805 142.879303,370.998657 
	C142.490540,376.155426 141.636368,381.322327 140.658142,386.465607 
	C137.755905,401.724823 135.344864,416.893188 142.389008,431.847992 
	C144.234482,435.765869 146.366592,438.175262 150.891693,438.010681 
	C158.860779,437.720825 166.842896,437.219482 174.803406,437.426788 
	C182.384552,437.624207 188.478226,441.844940 195.746613,446.052460 
	C181.027588,450.347839 167.550430,452.816925 153.129333,449.685333 
	C156.266678,453.503265 159.465378,457.930054 163.364792,458.671509 
	C177.853760,461.426483 192.615463,462.711426 207.184494,465.099182 
	C212.653397,465.995483 215.789902,465.339844 216.958923,459.316193 
	C217.670120,455.651489 220.522095,454.691376 223.078247,457.800903 
	C226.053665,461.420563 228.617447,465.413757 231.062241,469.426147 
	C234.720917,475.430847 238.207397,481.959442 245.936203,482.876678 
	C253.995209,483.833038 262.191559,483.640076 270.328583,483.929138 
	C285.740967,484.476654 297.705933,478.970032 305.366791,464.904480 
	C306.633179,462.579346 310.199249,461.085602 313.015045,460.103882 
	C321.634827,457.098755 330.573547,454.954498 339.053589,451.623474 
	C343.711731,449.793762 348.601227,447.032776 351.806885,443.325714 
	C359.742706,434.148804 364.325897,422.971619 363.789917,410.816071 
	C363.408203,402.159424 360.649109,393.607605 359.329102,385.006744 
	C360.713196,385.005524 361.719147,385.006561 362.725128,385.007599 
	C365.477112,394.081146 368.229095,403.154724 371.095459,412.887421 
	C371.504517,413.739410 371.799194,413.932281 372.093872,414.125153 
	C371.523163,428.945465 368.455566,443.197266 358.059662,454.231049 
	C353.579987,458.985596 346.661407,461.445831 340.832764,464.917999 
	C340.430267,465.157745 339.877106,465.146790 339.392914,465.246857 
	C328.020447,467.597809 319.351013,473.492126 312.944214,483.443329 
	C307.221954,492.331329 298.031891,495.554443 287.672089,496.052155 
	C279.617920,496.439056 271.561005,498.030914 263.550781,497.757141 
	C253.067307,497.398865 242.505707,496.348602 232.234406,494.305542 
	C228.415802,493.545929 224.361740,489.762360 222.104126,486.266876 
	C217.827057,479.644562 211.880951,477.773834 204.730957,476.949890 
	C189.405640,475.183960 174.065140,473.392700 158.863281,470.827087 
	C155.216660,470.211700 151.295929,467.157867 148.880707,464.126465 
	C143.277618,457.093872 138.436798,449.443573 133.436783,441.943787 
	C128.241745,434.151520 130.402008,425.280182 130.366882,416.150909 
	C130.730865,414.684082 130.771347,413.853668 130.811829,413.023224 
z"/>
<path fill="#000000" opacity="1.000000" stroke="none" 
	d="
M189.100128,89.209244 
	C176.657913,67.986069 173.683121,45.942497 184.060730,23.083654 
	C188.745804,12.763864 198.605667,11.075377 207.829269,17.808987 
	C217.267029,24.698933 222.602112,34.605560 226.998901,44.674446 
	C232.283386,56.776222 236.830139,69.435616 235.976791,83.141640 
	C235.874695,84.781334 235.592438,86.409828 234.967224,88.519821 
	C234.363663,89.051956 234.186569,89.107788 233.545807,89.086807 
	C220.730408,89.053345 208.378677,89.096695 195.690002,89.061615 
	C194.897690,89.035027 194.442322,89.086861 193.582733,89.073135 
	C191.819061,89.074799 190.459595,89.142021 189.100128,89.209244 
z"/>
<path fill="#000000" opacity="1.000000" stroke="none" 
	d="
M266.000305,88.802872 
	C265.281830,66.644310 272.528809,46.927818 285.137177,29.151049 
	C288.491119,24.422270 293.257751,20.332850 298.153076,17.142628 
	C306.009613,12.022607 314.301544,16.294397 317.840881,23.445732 
	C321.131073,30.093618 323.031372,37.823639 323.771759,45.253792 
	C325.141205,58.997097 323.323090,72.501862 316.085175,84.734787 
	C315.197083,86.235764 313.883148,87.484795 312.016174,88.903564 
	C310.171967,89.014595 309.078156,89.072655 307.519897,89.070259 
	C294.712738,89.053276 282.370026,89.096756 269.629211,89.060440 
	C268.154175,88.921387 267.077240,88.862129 266.000305,88.802872 
z"/>
<path fill="#D8CDB5" opacity="1.000000" stroke="none" 
	d="
M226.376434,274.919189 
	C233.925674,252.072800 241.474915,229.226456 249.024139,206.380096 
	C249.399155,206.370117 249.774155,206.360138 250.149155,206.350159 
	C257.450348,229.960510 264.751526,253.570862 271.720520,277.468872 
	C269.454865,277.298370 267.543945,276.667175 265.584076,276.411621 
	C256.434814,275.218506 247.294785,273.810394 238.103287,273.154541 
	C234.255890,272.880035 230.289001,274.280334 226.376434,274.919189 
z"/>
<path fill="#6D777D" opacity="1.000000" stroke="none" 
	d="
M226.043243,275.025696 
	C230.289001,274.280334 234.255890,272.880035 238.103287,273.154541 
	C247.294785,273.810394 256.434814,275.218506 265.584076,276.411621 
	C267.543945,276.667175 269.454865,277.298370 271.772644,277.859009 
	C277.687195,278.737793 281.539368,282.006866 285.316711,285.924500 
	C291.505676,292.343353 298.178741,298.299225 304.730164,304.361176 
	C305.896759,305.440582 307.463501,306.087555 309.226196,307.000977 
	C311.065796,308.050446 312.419434,309.654602 313.999420,309.922119 
	C335.857208,313.623016 348.620178,326.931946 353.860016,347.859589 
	C355.539948,354.569183 355.606445,361.673920 357.148041,368.429749 
	C358.386169,373.855682 360.737000,379.027679 362.659607,384.659973 
	C361.719147,385.006561 360.713196,385.005524 359.095642,384.743103 
	C356.351593,379.064331 354.169678,373.665558 352.118439,368.217560 
	C351.543945,366.691803 351.228119,365.038055 351.011139,363.413940 
	C350.264038,357.823059 349.946960,352.153839 348.863861,346.632629 
	C345.438568,329.170898 331.406403,314.852173 314.812775,312.289246 
	C309.017059,311.394073 304.483917,308.972870 300.502167,304.991302 
	C294.619385,299.108765 288.914520,293.030029 282.764130,287.441803 
	C280.061707,284.986389 276.671936,282.718140 273.209381,281.769318 
	C259.705139,278.068787 246.331390,272.565338 231.830261,277.013641 
	C228.028229,278.179932 224.122437,279.127869 220.196426,279.742706 
	C213.963303,280.718842 209.333496,283.424774 207.424667,289.792877 
	C205.738602,295.417877 201.013535,296.951263 196.122086,298.992584 
	C187.114166,302.751831 178.306915,307.099854 169.753983,311.815399 
	C157.897461,318.352417 158.178772,329.743683 161.852341,339.166473 
	C163.698425,343.901642 163.017120,346.573303 158.959412,349.087677 
	C158.541138,349.036346 158.372589,349.026825 158.204056,349.017273 
	C157.431900,341.815674 156.177612,334.624084 156.027481,327.409546 
	C155.886307,320.626190 159.589203,315.339203 165.379166,311.887238 
	C171.930923,307.981140 178.709442,304.457092 185.338104,300.677063 
	C186.858353,299.810089 188.169113,298.575836 189.822937,297.271088 
	C194.356873,298.224457 201.466675,295.841309 202.477554,291.993683 
	C205.164307,281.767365 212.055023,277.348419 221.920731,276.255463 
	C223.209503,276.112701 224.448181,275.517700 226.043243,275.025696 
z"/>
<path fill="#D9CFB7" opacity="1.000000" stroke="none" 
	d="
M307.984344,89.130714 
	C309.078156,89.072655 310.171967,89.014595 311.677765,88.966064 
	C312.065582,89.605537 312.288544,90.414986 311.980652,90.838875 
	C306.121124,98.906227 298.732605,104.986122 288.698914,106.726616 
	C279.400513,108.339561 268.211365,104.381638 265.686493,88.968582 
	C267.077240,88.862129 268.154175,88.921387 269.968628,89.292343 
	C280.729584,89.738960 290.752808,89.935028 300.776520,89.964310 
	C303.178314,89.971321 305.581696,89.423409 307.984344,89.130714 
z"/>
<path fill="#D9CEB6" opacity="1.000000" stroke="none" 
	d="
M193.986954,89.138687 
	C194.442322,89.086861 194.897690,89.035027 195.962555,89.280289 
	C198.515976,89.757301 200.456650,90.036949 202.404358,90.100548 
	C213.123642,90.450615 223.844650,90.747856 234.565063,91.063217 
	C231.869904,101.838249 222.686066,107.636024 211.968079,105.423874 
	C202.644241,103.499481 195.736298,98.056648 190.381287,90.345139 
	C191.770981,89.710884 192.878967,89.424782 193.986954,89.138687 
z"/>
<path fill="#C89E4D" opacity="1.000000" stroke="none" 
	d="
M47.841572,47.951813 
	C50.610893,47.912422 53.434227,47.941303 56.728004,47.931023 
	C57.198448,47.891865 57.094864,48.021038 57.272633,48.331726 
	C61.876480,48.769394 66.306992,48.812767 70.727386,49.046989 
	C75.102188,49.278797 79.466774,49.703201 83.835846,50.043121 
	C83.879646,51.724556 83.923447,53.405994 83.531525,55.681396 
	C81.651184,56.507641 80.206848,56.939880 78.761887,56.941948 
	C59.562527,56.969460 40.363079,56.936634 21.163651,56.918861 
	C21.120472,54.597481 21.077293,52.276104 21.560505,49.510056 
	C28.222891,49.051285 34.361618,49.138752 40.493572,48.974129 
	C43.018646,48.906338 45.529160,48.296288 48.046295,47.932884 
	C48.046295,47.932888 47.895588,48.020088 47.841572,47.951813 
z"/>
<path fill="#C89E4C" opacity="1.000000" stroke="none" 
	d="
M446.930084,453.969299 
	C446.930084,453.969330 446.529694,453.945618 446.007263,453.963837 
	C445.274261,454.019501 445.063690,454.056915 444.853119,454.094360 
	C444.853119,454.094360 444.934052,453.991425 444.711853,453.704346 
	C435.717316,453.218445 426.945007,453.019623 418.172668,452.820801 
	C418.128601,450.544922 418.084503,448.269043 418.569397,445.545166 
	C439.675720,445.109863 460.253052,445.122559 480.830414,445.135254 
	C480.884521,447.428650 480.938629,449.722015 480.458801,452.470337 
	C471.303833,452.978973 462.682770,453.032654 453.641235,453.064270 
	C451.123871,453.351196 449.026978,453.660248 446.930084,453.969299 
z"/>
<path fill="#C89E4C" opacity="1.000000" stroke="none" 
	d="
M446.163116,48.028667 
	C446.163116,48.028667 446.533325,48.032921 447.037903,48.267811 
	C449.723572,48.643864 451.904724,48.785023 454.547974,48.961342 
	C463.616272,49.041077 472.222473,49.085655 480.828674,49.130234 
	C480.884979,51.418343 480.941284,53.706451 480.462524,56.449699 
	C459.342834,56.883038 438.758209,56.861240 418.173584,56.839443 
	C418.129364,54.548382 418.085144,52.257324 418.565857,49.516586 
	C425.562744,49.053474 432.036835,49.129841 438.505463,48.976578 
	C440.690674,48.924801 442.862122,48.291294 445.039856,47.923649 
	C445.039856,47.923649 444.913483,48.004185 445.202698,48.002914 
	C445.715607,48.010651 445.939362,48.019657 446.163116,48.028667 
z"/>
<path fill="#C89E4C" opacity="1.000000" stroke="none" 
	d="
M21.127811,452.783722 
	C21.081329,450.534851 21.034849,448.285980 21.528912,445.579742 
	C42.363235,445.150330 62.657013,445.178314 82.950790,445.206299 
	C83.289017,447.181061 83.627235,449.155823 83.528778,451.699188 
	C74.391579,452.527008 65.691055,452.786224 56.540478,453.039459 
	C53.387707,453.050232 50.684990,453.066956 47.515221,453.052979 
	C38.408051,452.942780 29.767931,452.863251 21.127811,452.783722 
z"/>
<path fill="#D1C7B0" opacity="1.000000" stroke="none" 
	d="
M253.347534,89.015198 
	C254.341354,93.039856 255.325668,97.066895 256.330933,101.088692 
	C258.682861,110.498024 256.377106,122.178040 250.408356,130.232574 
	C239.224808,115.627831 244.510452,100.381653 248.018326,86.164207 
	C248.856018,86.630135 250.033539,87.285080 251.675751,88.085770 
	C252.542831,88.492744 252.945175,88.753975 253.347534,89.015198 
z"/>
<path fill="#DFD0AC" opacity="1.000000" stroke="none" 
	d="
M21.253231,57.354755 
	C40.363079,56.936634 59.562527,56.969460 78.761887,56.941948 
	C80.206848,56.939880 81.651184,56.507641 83.466980,56.097435 
	C82.940521,56.610981 82.044327,57.903458 81.145050,57.905605 
	C61.211178,57.953289 41.276962,57.858414 21.253231,57.354755 
z"/>
<path fill="#DFD0AD" opacity="1.000000" stroke="none" 
	d="
M418.221588,57.290703 
	C438.758209,56.861240 459.342834,56.883038 480.384094,56.871834 
	C480.271118,57.222702 479.701111,57.942554 479.131927,57.941856 
	C458.844452,57.917034 438.557007,57.824787 418.221588,57.290703 
z"/>
<path fill="#F3E6CA" opacity="1.000000" stroke="none" 
	d="
M480.764771,444.688660 
	C460.253052,445.122559 439.675720,445.109863 418.644836,445.124512 
	C418.742981,444.770172 419.294952,444.054504 419.846191,444.055084 
	C440.130554,444.076202 460.414825,444.163696 480.764771,444.688660 
z"/>
<path fill="#F3E7C9" opacity="1.000000" stroke="none" 
	d="
M83.297829,445.002960 
	C62.657013,445.178314 42.363235,445.150330 21.613930,445.166199 
	C21.870674,444.808716 22.581820,444.059052 23.295383,444.056732 
	C42.903339,443.993286 62.511559,443.999969 82.119644,444.039154 
	C82.628548,444.040222 83.136482,444.535065 83.297829,445.002960 
z"/>
<path fill="#FFFFFD" opacity="1.000000" stroke="none" 
	d="
M419.098816,442.416626 
	C437.973633,442.020905 457.062347,442.014465 476.626038,442.018005 
	C476.432373,442.350403 475.763580,442.954559 475.095184,442.954132 
	C456.501007,442.942230 437.906891,442.869019 419.098816,442.416626 
z"/>
<path fill="#FFFFFF" opacity="1.000000" stroke="none" 
	d="
M27.104568,442.415710 
	C45.316509,442.022461 63.739109,442.020020 82.637863,442.020691 
	C82.443260,442.344482 81.772362,442.945221 81.101738,442.944916 
	C63.172882,442.936493 45.244053,442.866302 27.104568,442.415710 
z"/>
<path fill="#C2C2C2" opacity="1.000000" stroke="none" 
	d="
M253.462296,88.560211 
	C252.945175,88.753975 252.542831,88.492744 252.016510,88.020424 
	C252.321564,80.276009 252.750610,72.742683 253.179642,65.209366 
	C253.648911,65.239067 254.118179,65.268768 254.587448,65.298477 
	C254.250656,72.900726 253.913849,80.502968 253.462296,88.560211 
z"/>
<path fill="#F8F4E5" opacity="1.000000" stroke="none" 
	d="
M130.356049,413.014740 
	C130.771347,413.853668 130.730865,414.684082 130.419510,415.674835 
	C128.742050,415.224609 127.340385,414.097198 125.928108,414.083801 
	C112.274292,413.953796 98.618683,414.010895 84.499268,414.062195 
	C84.030769,413.923584 84.026588,413.737335 84.011475,413.271851 
	C99.300446,412.997101 114.600365,413.001678 130.356049,413.014740 
z"/>
<path fill="#F7F5E7" opacity="1.000000" stroke="none" 
	d="
M372.553772,414.070618 
	C371.799194,413.932281 371.504517,413.739410 371.188293,413.280579 
	C386.465088,413.004700 401.763458,412.994873 417.530273,412.991028 
	C417.990417,413.181213 417.982056,413.365417 417.970001,413.826111 
	C402.982117,414.073822 387.997894,414.044952 372.553772,414.070618 
z"/>
<path fill="#E4DECE" opacity="1.000000" stroke="none" 
	d="
M234.620728,91.008682 
	C223.844650,90.747856 213.123642,90.450615 202.404358,90.100548 
	C200.456650,90.036949 198.515976,89.757301 196.299500,89.358719 
	C208.378677,89.096695 220.730408,89.053345 233.676392,89.507462 
	C234.396637,90.270210 234.522614,90.535515 234.648590,90.800812 
	C234.648590,90.800812 234.676376,90.954155 234.620728,91.008682 
z"/>
<path fill="#A99B76" opacity="1.000000" stroke="none" 
	d="
M47.982277,453.083649 
	C50.684990,453.066956 53.387707,453.050232 56.548649,453.296295 
	C57.010666,453.730621 57.014458,453.902191 57.018246,454.073730 
	C57.010918,460.067078 57.003590,466.060394 57.044395,472.518799 
	C56.730316,468.772491 56.168716,464.566681 56.051365,460.348541 
	C55.862671,453.566071 55.627110,453.273773 48.528885,454.792969 
	C48.175606,454.959381 48.028797,454.528290 47.996296,454.053925 
	C47.963795,453.579559 47.982277,453.083649 47.982277,453.083649 
z"/>
<path fill="#F4E8CD" opacity="1.000000" stroke="none" 
	d="
M83.910294,49.600449 
	C79.466774,49.703201 75.102188,49.278797 70.727386,49.046989 
	C66.306992,48.812767 61.876480,48.769394 57.201576,48.289246 
	C64.553841,47.958832 72.155922,47.924126 79.755119,48.055820 
	C81.170937,48.080357 82.575172,48.773296 83.910294,49.600449 
z"/>
<path fill="#E1CFAB" opacity="1.000000" stroke="none" 
	d="
M57.484421,454.039215 
	C57.014458,453.902191 57.010666,453.730621 56.998707,453.302246 
	C65.691055,452.786224 74.391579,452.527008 83.462952,452.089294 
	C82.786667,452.604523 81.753044,453.874634 80.690247,453.899536 
	C73.113693,454.077057 65.531204,454.000458 57.484421,454.039215 
z"/>
<path fill="#F5E8CB" opacity="1.000000" stroke="none" 
	d="
M47.574509,47.965767 
	C45.529160,48.296288 43.018646,48.906338 40.493572,48.974129 
	C34.361618,49.138752 28.222891,49.051285 21.631439,49.080460 
	C22.401770,48.730724 23.623541,48.066669 24.854002,48.050156 
	C32.269135,47.950623 39.686264,47.999462 47.574509,47.965767 
z"/>
<path fill="#E1CEA8" opacity="1.000000" stroke="none" 
	d="
M47.515221,453.052979 
	C47.982277,453.083649 47.963795,453.579559 47.972393,453.827515 
	C39.070568,453.949951 30.160143,453.824493 21.188765,453.241364 
	C29.767931,452.863251 38.408051,452.942780 47.515221,453.052979 
z"/>
<path fill="#F6E7CC" opacity="1.000000" stroke="none" 
	d="
M480.755280,48.685966 
	C472.222473,49.085655 463.616272,49.041077 454.558319,48.800934 
	C454.106567,48.605366 454.184296,48.292896 454.184296,48.292896 
	C454.184296,48.292896 454.262421,48.004589 454.122009,47.953987 
	C462.881683,48.016159 471.781769,48.128933 480.755280,48.685966 
z"/>
<path fill="#E0D0AB" opacity="1.000000" stroke="none" 
	d="
M418.218109,453.274109 
	C426.945007,453.019623 435.717316,453.218445 444.763855,453.744080 
	C436.113251,453.956421 427.188385,453.841919 418.218109,453.274109 
z"/>
<path fill="#E0CFAA" opacity="1.000000" stroke="none" 
	d="
M454.061676,453.086365 
	C462.682770,453.032654 471.303833,452.978973 480.381409,452.893951 
	C479.611633,453.239990 478.389832,453.926208 477.158325,453.944061 
	C469.749207,454.051483 462.337921,454.005615 454.460815,454.063354 
	C453.994293,454.115601 454.276917,453.975006 454.181122,453.681885 
	C454.085327,453.388794 454.061676,453.086365 454.061676,453.086365 
z"/>
<path fill="#F5E7CC" opacity="1.000000" stroke="none" 
	d="
M444.568878,47.959393 
	C442.862122,48.291294 440.690674,48.924801 438.505463,48.976578 
	C432.036835,49.129841 425.562744,49.053474 418.636414,49.092072 
	C419.397675,48.746155 420.609131,48.070751 421.829681,48.053837 
	C429.251251,47.951000 436.674927,47.998093 444.568878,47.959393 
z"/>
<path fill="#000000" opacity="1.000000" stroke="none" 
	d="
M306.552917,11.446032 
	C303.449066,12.094533 303.449066,12.094533 303.546783,7.042764 
	C304.598083,8.409677 305.649384,9.776588 306.552917,11.446032 
z"/>
<path fill="#B4A67F" opacity="1.000000" stroke="none" 
	d="
M446.106628,47.560390 
	C445.939362,48.019657 445.715607,48.010651 445.161438,47.940369 
	C444.884155,42.235210 444.937347,36.591324 444.936920,30.483635 
	C445.272278,35.710590 445.661224,41.401352 446.106628,47.560390 
z"/>
<path fill="#B0A280" opacity="1.000000" stroke="none" 
	d="
M444.918579,454.552094 
	C445.063690,454.056915 445.274261,454.019501 445.806793,453.968781 
	C445.906311,459.766296 445.683807,465.577057 445.168823,471.685852 
	C444.912201,466.325867 444.948090,460.667847 444.918579,454.552094 
z"/>
<path fill="#E4DECE" opacity="1.000000" stroke="none" 
	d="
M193.582733,89.073135 
	C192.878967,89.424782 191.770981,89.710884 190.305573,90.014122 
	C189.640396,90.010193 189.418182,89.861404 189.190811,89.397079 
	C190.459595,89.142021 191.819061,89.074799 193.582733,89.073135 
z"/>
<path fill="#D9CEB6" opacity="1.000000" stroke="none" 
	d="
M234.868866,90.504822 
	C234.522614,90.535515 234.396637,90.270210 234.140076,89.584267 
	C234.186569,89.107788 234.363663,89.051956 234.795319,88.883186 
	C235.062988,89.249779 235.076080,89.729301 234.868866,90.504822 
z"/>
<path fill="#EAE3D0" opacity="1.000000" stroke="none" 
	d="
M326.977448,88.625687 
	C326.834930,88.979355 326.537537,88.995544 325.793854,89.047577 
	C325.839203,88.818344 326.330872,88.553284 326.977448,88.625687 
z"/>
<path fill="#B0A280" opacity="1.000000" stroke="none" 
	d="
M453.641235,453.064270 
	C454.061676,453.086365 454.085327,453.388794 454.123596,453.534912 
	C452.053375,453.781494 449.944885,453.881927 447.383240,453.975830 
	C449.026978,453.660248 451.123871,453.351196 453.641235,453.064270 
z"/>
<path fill="#B4A67F" opacity="1.000000" stroke="none" 
	d="
M453.735596,48.209255 
	C454.184296,48.292896 454.106567,48.605366 454.096191,48.765778 
	C451.904724,48.785023 449.723572,48.643864 447.222717,48.257591 
	C449.030945,48.050190 451.158936,48.087902 453.735596,48.209255 
z"/>
<path fill="#99AAB4" opacity="1.000000" stroke="none" 
	d="
M159.209137,349.129456 
	C163.017120,346.573303 163.698425,343.901642 161.852341,339.166473 
	C158.178772,329.743683 157.897461,318.352417 169.753983,311.815399 
	C178.306915,307.099854 187.114166,302.751831 196.122086,298.992584 
	C201.013535,296.951263 205.738602,295.417877 207.424667,289.792877 
	C209.333496,283.424774 213.963303,280.718842 220.196426,279.742706 
	C224.122437,279.127869 228.028229,278.179932 231.830261,277.013641 
	C246.331390,272.565338 259.705139,278.068787 273.209381,281.769318 
	C276.671936,282.718140 280.061707,284.986389 282.764130,287.441803 
	C288.914520,293.030029 294.619385,299.108765 300.502167,304.991302 
	C304.483917,308.972870 309.017059,311.394073 314.812775,312.289246 
	C331.406403,314.852173 345.438568,329.170898 348.863861,346.632629 
	C349.946960,352.153839 350.264038,357.823059 351.011139,363.413940 
	C351.228119,365.038055 351.543945,366.691803 352.118439,368.217560 
	C354.169678,373.665558 356.351593,379.064331 358.717529,384.745361 
	C360.649109,393.607605 363.408203,402.159424 363.789917,410.816071 
	C364.325897,422.971619 359.742706,434.148804 351.806885,443.325714 
	C348.601227,447.032776 343.711731,449.793762 339.053589,451.623474 
	C330.573547,454.954498 321.634827,457.098755 313.015045,460.103882 
	C310.199249,461.085602 306.633179,462.579346 305.366791,464.904480 
	C297.705933,478.970032 285.740967,484.476654 270.328583,483.929138 
	C262.191559,483.640076 253.995209,483.833038 245.936203,482.876678 
	C238.207397,481.959442 234.720917,475.430847 231.062241,469.426147 
	C228.617447,465.413757 226.053665,461.420563 223.078247,457.800903 
	C220.522095,454.691376 217.670120,455.651489 216.958923,459.316193 
	C215.789902,465.339844 212.653397,465.995483 207.184494,465.099182 
	C192.615463,462.711426 177.853760,461.426483 163.364792,458.671509 
	C159.465378,457.930054 156.266678,453.503265 153.129333,449.685333 
	C167.550430,452.816925 181.027588,450.347839 195.746613,446.052460 
	C188.478226,441.844940 182.384552,437.624207 174.803406,437.426788 
	C166.842896,437.219482 158.860779,437.720825 150.891693,438.010681 
	C146.366592,438.175262 144.234482,435.765869 142.389008,431.847992 
	C135.344864,416.893188 137.755905,401.724823 140.658142,386.465607 
	C141.636368,381.322327 142.490540,376.155426 143.097656,370.714813 
	C142.954056,370.046173 143.114182,369.662048 143.830856,369.200928 
	C148.578705,363.399414 152.770035,357.674896 156.961365,351.950409 
	C156.961365,351.950409 157.000656,351.995667 157.275284,351.876587 
	C158.102997,350.881470 158.656067,350.005463 159.209137,349.129456 
M190.906540,350.489838 
	C192.227921,351.281097 193.549301,352.072388 196.346069,353.747162 
	C189.384079,357.624054 184.011856,361.918549 177.908173,363.683502 
	C170.346588,365.870056 162.193298,366.111420 154.265060,366.876068 
	C151.352386,367.156982 150.414429,368.495148 149.695511,371.072784 
	C146.273331,383.343018 144.677307,395.798798 144.829849,408.541840 
	C144.873550,412.192719 146.200912,414.336151 149.604126,414.992462 
	C157.082474,416.434753 164.555954,418.401306 172.107605,418.838684 
	C181.630386,419.390198 189.923447,421.863556 196.935257,428.523682 
	C207.671478,438.721405 218.514145,448.809814 229.464981,458.776123 
	C231.161545,460.320190 233.573212,461.540741 235.825562,461.937073 
	C250.778793,464.568329 265.659790,462.399719 280.529877,460.801666 
	C287.588745,460.043030 291.837708,455.767365 294.323364,449.361694 
	C295.605194,446.058380 294.855652,444.332489 291.099182,443.998749 
	C284.817230,443.440643 278.545288,442.738281 272.287018,441.954132 
	C265.721985,441.131500 263.710327,439.001617 263.062653,432.438538 
	C262.899445,430.784821 262.930664,429.109558 262.917603,427.443817 
	C262.866852,420.960052 263.144379,420.698792 269.669617,421.031281 
	C283.103821,421.715790 296.554932,422.190369 309.958588,423.259003 
	C312.945679,423.497101 316.726776,425.100891 318.447449,427.364349 
	C321.355499,431.189758 324.515869,431.439087 328.451508,430.581390 
	C330.401825,430.156403 332.321381,429.588165 334.274658,429.179474 
	C347.216217,426.471710 358.144287,412.165924 356.870758,398.964844 
	C356.654785,396.725891 354.481598,394.619751 353.045532,392.569275 
	C351.404663,390.226379 349.019592,388.242096 347.975403,385.686279 
	C346.746216,382.677734 346.404541,379.245941 346.036682,375.957550 
	C344.929657,366.061157 344.402283,356.083679 342.908569,346.250305 
	C340.122711,327.910706 323.734558,314.836426 307.810120,313.852356 
	C305.808838,313.728668 303.525970,312.724030 301.992096,311.407074 
	C295.055145,305.451141 288.510712,299.030182 281.466736,293.210266 
	C278.399017,290.675598 274.619720,288.805237 270.888245,287.329376 
	C267.529053,286.000824 263.719025,285.863556 260.238037,284.781830 
	C249.958191,281.587219 239.691071,281.074646 229.303619,284.167847 
	C226.915283,284.879028 224.484726,285.595856 222.023621,285.885742 
	C216.290375,286.561035 211.941055,288.863373 210.084000,294.719971 
	C208.749161,298.929688 205.496490,300.571136 201.508286,302.128754 
	C192.250946,305.744324 183.115280,309.772278 174.251190,314.266052 
	C164.990753,318.960754 164.426804,327.349976 167.181854,336.729401 
	C167.698120,338.487030 169.587189,340.281982 171.303177,341.167572 
	C177.513519,344.372620 183.920029,347.197571 190.906540,350.489838 
M282.234589,469.458496 
	C278.743958,470.752625 276.381256,473.403503 278.791870,476.574127 
	C280.049469,478.228241 284.913818,479.231598 286.433136,478.140198 
	C289.208344,476.146576 290.708252,472.377625 292.740082,469.349152 
	C290.310028,469.130951 287.883057,468.853088 285.448212,468.728455 
	C284.645355,468.687317 283.822235,469.041931 282.234589,469.458496 
M313.000275,437.062775 
	C311.365417,437.594604 309.730591,438.126434 307.470551,438.861664 
	C308.712494,441.010193 309.423309,442.655396 310.500061,444.009644 
	C312.323120,446.302521 314.884216,448.558533 317.591095,446.308472 
	C319.794739,444.476715 320.899536,441.323090 322.491608,438.755646 
	C320.108124,438.158844 317.729370,437.541595 315.337036,436.982758 
	C314.870941,436.873901 314.351868,436.992004 313.000275,437.062775 
z"/>
<path fill="#797F83" opacity="1.000000" stroke="none" 
	d="
M156.612640,351.910339 
	C152.770035,357.674896 148.578705,363.399414 143.992920,369.062134 
	C147.820267,363.290314 152.042084,357.580292 156.612640,351.910339 
z"/>
<path fill="#797F83" opacity="1.000000" stroke="none" 
	d="
M158.959412,349.087677 
	C158.656067,350.005463 158.102997,350.881470 157.247360,351.865845 
	C157.189163,351.139313 157.433502,350.304413 157.940948,349.243408 
	C158.372589,349.026825 158.541138,349.036346 158.959412,349.087677 
z"/>
<path fill="#E6DFCE" opacity="1.000000" stroke="none" 
	d="
M307.519897,89.070259 
	C305.581696,89.423409 303.178314,89.971321 300.776520,89.964310 
	C290.752808,89.935028 280.729584,89.738960 270.366760,89.372131 
	C282.370026,89.096756 294.712738,89.053276 307.519897,89.070259 
z"/>
<path fill="#CCD7DD" opacity="1.000000" stroke="none" 
	d="
M190.579529,350.327911 
	C183.920029,347.197571 177.513519,344.372620 171.303177,341.167572 
	C169.587189,340.281982 167.698120,338.487030 167.181854,336.729401 
	C164.426804,327.349976 164.990753,318.960754 174.251190,314.266052 
	C183.115280,309.772278 192.250946,305.744324 201.508286,302.128754 
	C205.496490,300.571136 208.749161,298.929688 210.084000,294.719971 
	C211.941055,288.863373 216.290375,286.561035 222.023621,285.885742 
	C224.484726,285.595856 226.915283,284.879028 229.303619,284.167847 
	C239.691071,281.074646 249.958191,281.587219 260.238037,284.781830 
	C263.719025,285.863556 267.529053,286.000824 270.888245,287.329376 
	C274.619720,288.805237 278.399017,290.675598 281.466736,293.210266 
	C288.510712,299.030182 295.055145,305.451141 301.992096,311.407074 
	C303.525970,312.724030 305.808838,313.728668 307.810120,313.852356 
	C323.734558,314.836426 340.122711,327.910706 342.908569,346.250305 
	C344.402283,356.083679 344.929657,366.061157 346.036682,375.957550 
	C346.404541,379.245941 346.746216,382.677734 347.975403,385.686279 
	C349.019592,388.242096 351.404663,390.226379 353.045532,392.569275 
	C354.481598,394.619751 356.654785,396.725891 356.870758,398.964844 
	C358.144287,412.165924 347.216217,426.471710 334.274658,429.179474 
	C332.321381,429.588165 330.401825,430.156403 328.451508,430.581390 
	C324.515869,431.439087 321.355499,431.189758 318.447449,427.364349 
	C316.726776,425.100891 312.945679,423.497101 309.958588,423.259003 
	C296.554932,422.190369 283.103821,421.715790 269.669617,421.031281 
	C263.144379,420.698792 262.866852,420.960052 262.917603,427.443817 
	C262.930664,429.109558 262.899445,430.784821 263.062653,432.438538 
	C263.710327,439.001617 265.721985,441.131500 272.287018,441.954132 
	C278.545288,442.738281 284.817230,443.440643 291.099182,443.998749 
	C294.855652,444.332489 295.605194,446.058380 294.323364,449.361694 
	C291.837708,455.767365 287.588745,460.043030 280.529877,460.801666 
	C265.659790,462.399719 250.778793,464.568329 235.825562,461.937073 
	C233.573212,461.540741 231.161545,460.320190 229.464981,458.776123 
	C218.514145,448.809814 207.671478,438.721405 196.935257,428.523682 
	C189.923447,421.863556 181.630386,419.390198 172.107605,418.838684 
	C164.555954,418.401306 157.082474,416.434753 149.604126,414.992462 
	C146.200912,414.336151 144.873550,412.192719 144.829849,408.541840 
	C144.677307,395.798798 146.273331,383.343018 149.695511,371.072784 
	C150.414429,368.495148 151.352386,367.156982 154.265060,366.876068 
	C162.193298,366.111420 170.346588,365.870056 177.908173,363.683502 
	C184.011856,361.918549 189.384079,357.624054 196.346069,353.747162 
	C193.549301,352.072388 192.227921,351.281097 190.579529,350.327911 
M324.001312,397.475891 
	C327.390930,393.386230 330.812103,389.322205 334.159424,385.198212 
	C336.531189,382.276154 336.680786,379.334869 333.439453,376.994537 
	C327.390839,372.627380 321.528809,367.846619 314.982605,364.384827 
	C311.340485,362.458740 306.214935,361.590118 302.208557,362.420074 
	C288.888214,365.179626 275.722595,368.748688 262.616882,372.431641 
	C259.823242,373.216705 256.938232,375.324402 255.129807,377.633087 
	C251.054932,382.835144 247.824799,388.690521 243.884903,394.008881 
	C239.358551,400.118927 239.639771,402.054504 248.591309,404.647888 
	C249.379990,404.876373 250.228149,404.940796 251.054245,404.992889 
	C267.108673,406.004913 283.206635,406.573486 299.203766,408.159668 
	C309.521912,409.182709 317.332611,405.979401 324.001312,397.475891 
M161.482346,378.999359 
	C168.283615,385.784851 174.849640,392.835571 182.024857,399.199432 
	C184.271927,401.192413 188.784195,402.964447 191.189087,402.043182 
	C201.685303,398.022247 211.839722,393.082428 222.006165,388.240906 
	C225.840714,386.414795 225.756393,384.410767 221.871307,382.495941 
	C215.333069,379.273438 208.806610,375.944336 202.011765,373.350098 
	C196.063095,371.078918 189.803574,368.602081 183.587494,368.325470 
	C176.777618,368.022400 169.810852,369.894409 163.004868,371.274261 
	C157.392548,372.412048 157.195633,373.636078 161.482346,378.999359 
M330.747894,336.131592 
	C330.786255,334.233521 331.555359,331.911987 330.741577,330.507782 
	C326.275238,322.801422 314.265656,318.390472 305.978210,321.274658 
	C303.029541,322.300842 300.111267,323.683075 297.520996,325.414276 
	C292.167206,328.992401 286.766296,332.594788 281.914948,336.798950 
	C278.280090,339.948944 279.316711,343.215607 284.024139,344.129333 
	C293.449402,345.958801 302.953278,347.382812 312.422607,348.986359 
	C320.868622,350.416565 325.967255,346.270752 329.207855,338.973053 
	C329.542786,338.218811 330.027222,337.531006 330.747894,336.131592 
M234.648956,287.059296 
	C231.014786,288.227020 227.322571,289.246796 223.775940,290.637726 
	C222.420425,291.169373 221.398102,292.550598 220.223938,293.544647 
	C221.216125,294.558960 222.047562,295.843933 223.226379,296.543945 
	C231.364975,301.376862 239.581284,306.078827 247.762436,310.840332 
	C256.974304,316.201721 259.964600,316.075806 268.360138,309.752350 
	C269.813782,308.657501 271.155762,307.384888 272.414856,306.066040 
	C280.371979,297.731354 280.068970,295.349487 270.118500,291.902588 
	C258.976440,288.042877 247.909195,282.247284 234.648956,287.059296 
M225.490463,317.059631 
	C224.287521,316.175354 223.115677,315.244659 221.876511,314.414459 
	C214.659729,309.579559 207.220032,305.886017 198.207306,309.452393 
	C192.650665,311.651184 186.939423,313.483856 181.481750,315.897339 
	C178.854767,317.059052 176.653687,319.183929 174.259735,320.872650 
	C177.124893,322.216888 179.988998,323.563354 182.858337,324.898590 
	C182.999542,324.964325 183.186157,324.939880 183.351974,324.944336 
	C196.452347,325.296875 209.551697,325.761475 222.654221,325.880768 
	C224.690338,325.899292 226.740829,324.339478 228.784683,323.509583 
	C227.867615,321.526459 226.950531,319.543335 225.490463,317.059631 
M227.542038,335.111603 
	C223.404572,335.388885 219.243652,335.486572 215.139954,336.022430 
	C213.210846,336.274292 210.119751,337.014893 209.800735,338.159760 
	C209.223831,340.230255 209.520401,343.563538 210.889755,344.963409 
	C214.806595,348.967529 219.395432,352.329590 223.844955,355.783142 
	C224.628891,356.391602 226.101578,356.589661 227.111191,356.354553 
	C234.876663,354.546356 242.651993,352.740570 250.298523,350.504089 
	C251.462265,350.163696 252.845032,347.463898 252.622223,346.101410 
	C252.059692,342.661316 243.485107,336.226288 239.860764,335.933228 
	C236.058868,335.625824 232.251770,335.382935 227.542038,335.111603 
M226.934006,373.609711 
	C228.010162,374.365295 229.000504,375.309387 230.176849,375.844849 
	C236.332764,378.647125 241.873581,376.296021 243.947647,369.860779 
	C244.267181,368.869354 243.284393,366.409546 242.986877,366.423309 
	C237.495560,366.677124 231.907272,366.701569 226.577042,367.863892 
	C223.433167,368.549438 223.194229,371.227631 226.934006,373.609711 
M266.596191,321.976868 
	C265.797455,323.391510 264.212555,324.901306 264.369781,326.200256 
	C264.663025,328.623138 265.577240,331.214905 267.018311,333.152191 
	C267.742615,334.125854 270.394257,334.435425 271.819153,333.966370 
	C275.348022,332.804657 278.620087,325.238281 276.729645,322.140961 
	C274.180695,317.964661 270.517090,320.023804 266.596191,321.976868 
M240.799805,419.014465 
	C239.936127,420.205505 238.398254,421.407318 238.417068,422.584229 
	C238.432800,423.567261 240.266846,425.331604 241.303116,425.337067 
	C244.503555,425.354004 247.771362,424.942963 250.870483,424.144745 
	C251.776291,423.911407 252.731995,421.802551 252.672867,420.602203 
	C252.631805,419.768341 250.926529,418.401184 249.909561,418.349091 
	C247.152878,418.207733 244.366760,418.640259 240.799805,419.014465 
z"/>
<path fill="#677882" opacity="1.000000" stroke="none" 
	d="
M282.621460,469.337036 
	C283.822235,469.041931 284.645355,468.687317 285.448212,468.728455 
	C287.883057,468.853088 290.310028,469.130951 292.740082,469.349182 
	C290.708252,472.377625 289.208344,476.146576 286.433136,478.140198 
	C284.913818,479.231598 280.049469,478.228241 278.791870,476.574127 
	C276.381256,473.403503 278.743958,470.752625 282.621460,469.337036 
z"/>
<path fill="#697782" opacity="1.000000" stroke="none" 
	d="
M313.428772,437.034119 
	C314.351868,436.992004 314.870941,436.873901 315.337036,436.982758 
	C317.729370,437.541595 320.108124,438.158844 322.491608,438.755615 
	C320.899536,441.323090 319.794739,444.476715 317.591095,446.308472 
	C314.884216,448.558533 312.323120,446.302521 310.500061,444.009644 
	C309.423309,442.655396 308.712494,441.010193 307.470551,438.861664 
	C309.730591,438.126434 311.365417,437.594604 313.428772,437.034119 
z"/>
<path fill="#E0E7ED" opacity="1.000000" stroke="none" 
	d="
M323.752380,397.726685 
	C317.332611,405.979401 309.521912,409.182709 299.203766,408.159668 
	C283.206635,406.573486 267.108673,406.004913 251.054245,404.992889 
	C250.228149,404.940796 249.379990,404.876373 248.591309,404.647888 
	C239.639771,402.054504 239.358551,400.118927 243.884903,394.008881 
	C247.824799,388.690521 251.054932,382.835144 255.129807,377.633087 
	C256.938232,375.324402 259.823242,373.216705 262.616882,372.431641 
	C275.722595,368.748688 288.888214,365.179626 302.208557,362.420074 
	C306.214935,361.590118 311.340485,362.458740 314.982605,364.384827 
	C321.528809,367.846619 327.390839,372.627380 333.439453,376.994537 
	C336.680786,379.334869 336.531189,382.276154 334.159424,385.198212 
	C330.812103,389.322205 327.390930,393.386230 323.752380,397.726685 
z"/>
<path fill="#E0E7ED" opacity="1.000000" stroke="none" 
	d="
M161.229553,378.743073 
	C157.195633,373.636078 157.392548,372.412048 163.004868,371.274261 
	C169.810852,369.894409 176.777618,368.022400 183.587494,368.325470 
	C189.803574,368.602081 196.063095,371.078918 202.011765,373.350098 
	C208.806610,375.944336 215.333069,379.273438 221.871307,382.495941 
	C225.756393,384.410767 225.840714,386.414795 222.006165,388.240906 
	C211.839722,393.082428 201.685303,398.022247 191.189087,402.043182 
	C188.784195,402.964447 184.271927,401.192413 182.024857,399.199432 
	C174.849640,392.835571 168.283615,385.784851 161.229553,378.743073 
z"/>
<path fill="#DFE7ED" opacity="1.000000" stroke="none" 
	d="
M330.595093,336.471985 
	C330.027222,337.531006 329.542786,338.218811 329.207855,338.973053 
	C325.967255,346.270752 320.868622,350.416565 312.422607,348.986359 
	C302.953278,347.382812 293.449402,345.958801 284.024139,344.129333 
	C279.316711,343.215607 278.280090,339.948944 281.914948,336.798950 
	C286.766296,332.594788 292.167206,328.992401 297.520996,325.414276 
	C300.111267,323.683075 303.029541,322.300842 305.978210,321.274658 
	C314.265656,318.390472 326.275238,322.801422 330.741577,330.507782 
	C331.555359,331.911987 330.786255,334.233521 330.595093,336.471985 
z"/>
<path fill="#E0E7ED" opacity="1.000000" stroke="none" 
	d="
M235.055038,286.988342 
	C247.909195,282.247284 258.976440,288.042877 270.118500,291.902588 
	C280.068970,295.349487 280.371979,297.731354 272.414856,306.066040 
	C271.155762,307.384888 269.813782,308.657501 268.360138,309.752350 
	C259.964600,316.075806 256.974304,316.201721 247.762436,310.840332 
	C239.581284,306.078827 231.364975,301.376862 223.226379,296.543945 
	C222.047562,295.843933 221.216125,294.558960 220.223938,293.544647 
	C221.398102,292.550598 222.420425,291.169373 223.775940,290.637726 
	C227.322571,289.246796 231.014786,288.227020 235.055038,286.988342 
z"/>
<path fill="#E0E7ED" opacity="1.000000" stroke="none" 
	d="
M225.761963,317.309937 
	C226.950531,319.543335 227.867615,321.526459 228.784683,323.509583 
	C226.740829,324.339478 224.690338,325.899292 222.654221,325.880768 
	C209.551697,325.761475 196.452347,325.296875 183.351974,324.944336 
	C183.186157,324.939880 182.999542,324.964325 182.858337,324.898590 
	C179.988998,323.563354 177.124893,322.216888 174.259735,320.872650 
	C176.653687,319.183929 178.854767,317.059052 181.481750,315.897339 
	C186.939423,313.483856 192.650665,311.651184 198.207306,309.452393 
	C207.220032,305.886017 214.659729,309.579559 221.876511,314.414459 
	C223.115677,315.244659 224.287521,316.175354 225.761963,317.309937 
z"/>
<path fill="#9AABB4" opacity="1.000000" stroke="none" 
	d="
M227.994492,335.111725 
	C232.251770,335.382935 236.058868,335.625824 239.860764,335.933228 
	C243.485107,336.226288 252.059692,342.661316 252.622223,346.101410 
	C252.845032,347.463898 251.462265,350.163696 250.298523,350.504089 
	C242.651993,352.740570 234.876663,354.546356 227.111191,356.354553 
	C226.101578,356.589661 224.628891,356.391602 223.844955,355.783142 
	C219.395432,352.329590 214.806595,348.967529 210.889755,344.963409 
	C209.520401,343.563538 209.223831,340.230255 209.800735,338.159760 
	C210.119751,337.014893 213.210846,336.274292 215.139954,336.022430 
	C219.243652,335.486572 223.404572,335.388885 227.994492,335.111725 
z"/>
<path fill="#DFE7ED" opacity="1.000000" stroke="none" 
	d="
M226.626099,373.401611 
	C223.194229,371.227631 223.433167,368.549438 226.577042,367.863892 
	C231.907272,366.701569 237.495560,366.677124 242.986877,366.423309 
	C243.284393,366.409546 244.267181,368.869354 243.947647,369.860779 
	C241.873581,376.296021 236.332764,378.647125 230.176849,375.844849 
	C229.000504,375.309387 228.010162,374.365295 226.626099,373.401611 
z"/>
<path fill="#9BABB5" opacity="1.000000" stroke="none" 
	d="
M266.898621,321.720459 
	C270.517090,320.023804 274.180695,317.964661 276.729645,322.140961 
	C278.620087,325.238281 275.348022,332.804657 271.819153,333.966370 
	C270.394257,334.435425 267.742615,334.125854 267.018311,333.152191 
	C265.577240,331.214905 264.663025,328.623138 264.369781,326.200256 
	C264.212555,324.901306 265.797455,323.391510 266.898621,321.720459 
z"/>
<path fill="#9FADB5" opacity="1.000000" stroke="none" 
	d="
M241.196060,418.929840 
	C244.366760,418.640259 247.152878,418.207733 249.909561,418.349091 
	C250.926529,418.401184 252.631805,419.768341 252.672867,420.602203 
	C252.731995,421.802551 251.776291,423.911407 250.870483,424.144745 
	C247.771362,424.942963 244.503555,425.354004 241.303116,425.337067 
	C240.266846,425.331604 238.432800,423.567261 238.417068,422.584229 
	C238.398254,421.407318 239.936127,420.205505 241.196060,418.929840 
z"/>
</svg>