<svg version="1.1" id="Layer_1" xmlns="http://www.w3.org/2000/svg" xmlns:xlink="http://www.w3.org/1999/xlink" x="0px" y="0px"
	 width="100%" viewBox="0 0 100 100" enable-background="new 0 0 100 100" xml:space="preserve">
<path fill="#FEFEFE" opacity="1.000000" stroke="none" 
	d="
M89.000000,101.000000 
	C63.979103,101.000000 38.958210,101.000000 13.591101,100.646629 
	C12.823768,97.522881 12.402648,94.752495 12.391294,91.924965 
	C14.397708,91.693398 15.994355,91.518974 17.591003,91.344551 
	C17.532152,91.044563 17.473301,90.744568 17.414448,90.444580 
	C13.395723,90.444580 9.376999,90.444580 5.358274,90.444580 
	C5.347233,90.765289 5.336193,91.086006 5.325152,91.406715 
	C6.890673,91.598343 8.456193,91.789970 10.017374,92.368286 
	C10.749058,95.504486 6.185357,98.245621 10.000000,101.000000 
	C7.012308,101.000000 4.024617,101.000000 1.000000,101.000000 
	C1.000000,68.313690 1.000000,35.627369 1.000000,2.941047 
	C1.000000,2.294025 1.000000,1.647003 1.000000,1.000000 
	C3.706466,1.000000 6.362185,1.000000 9.381130,1.325542 
	C6.073486,5.550937 11.861823,8.077964 10.196303,11.686777 
	C10.799276,11.689246 11.402249,11.691714 12.005222,11.694183 
	C12.336815,8.129456 12.668407,4.564728 13.000000,1.000000 
	C21.020899,1.000000 29.041800,1.000000 37.440777,1.347687 
	C32.017582,6.926630 34.084995,12.954777 35.597046,18.985062 
	C29.417686,18.989607 23.710217,18.983559 18.001099,18.541451 
	C17.886368,16.521873 17.773283,14.938353 17.635048,13.002626 
	C15.314831,13.002626 13.509382,13.003203 11.703934,13.002524 
	C5.006054,13.000006 5.003502,12.999850 5.003096,19.717228 
	C5.001818,40.843491 5.002634,61.969753 5.002638,83.096016 
	C5.002639,84.867439 5.002638,86.638870 5.002638,88.699654 
	C9.574562,88.699654 13.468690,88.699654 18.012550,88.699654 
	C18.012550,86.634659 18.012550,84.858704 18.454876,83.069794 
	C21.536875,83.066132 24.176546,83.075424 26.881088,83.493622 
	C27.116402,91.195480 29.211761,93.423561 36.351955,95.198219 
	C40.149033,96.141968 44.780136,95.320229 47.364727,99.631226 
	C47.669708,100.139923 49.228237,99.991768 50.204945,99.987366 
	C55.708984,99.962563 61.635647,101.325409 65.350616,95.325661 
	C65.723778,94.723007 66.724213,94.367203 67.501823,94.179070 
	C73.385117,92.755699 75.073730,88.476959 75.622269,83.069763 
	C78.701744,83.067108 81.343681,83.078644 83.987076,83.519592 
	C84.112511,85.527237 84.236511,87.105484 84.351463,88.568649 
	C88.817375,88.568649 92.702850,88.568649 96.641052,88.568649 
	C96.641052,63.279335 96.641052,38.419960 96.641052,13.315790 
	C92.388893,13.315790 88.494110,13.315790 83.995789,13.315790 
	C83.995789,15.397029 83.995789,17.182369 83.528191,18.980022 
	C77.357269,18.988342 71.653946,18.984348 65.988411,18.585127 
	C69.203712,10.618209 68.362717,4.624174 63.000000,1.000000 
	C71.354233,1.000000 79.708466,1.000000 88.401108,1.356182 
	C89.262184,5.048562 89.784859,8.384760 90.307541,11.720958 
	C93.745934,3.597493 93.745934,3.597493 92.000000,1.000000 
	C94.987694,1.000000 97.975380,1.000000 101.000000,1.000000 
	C101.000000,33.686302 101.000000,66.372612 101.000000,99.058929 
	C101.000000,99.705956 101.000000,100.352989 101.000000,101.000000 
	C98.293556,101.000000 95.637825,101.000000 92.610397,100.674347 
	C92.485519,99.053429 92.971512,97.747978 92.916885,96.465561 
	C92.852783,94.961090 92.318657,93.476646 92.395325,91.926102 
	C94.103783,91.695923 95.405312,91.523140 96.706841,91.350357 
	C96.667107,91.016396 96.627365,90.682426 96.587631,90.348465 
	C92.597191,90.348465 88.606750,90.348465 84.616310,90.348465 
	C84.578033,90.700562 84.539757,91.052658 84.501480,91.404755 
	C86.338188,91.597679 88.174889,91.790596 90.006531,92.368225 
	C89.667641,95.501953 89.333824,98.250977 89.000000,101.000000 
z"/>
<path fill="#060606" opacity="1.000000" stroke="none" 
	d="
M62.666668,1.000000 
	C68.362717,4.624174 69.203712,10.618209 65.669044,18.726286 
	C62.241028,21.717474 59.170170,24.172274 56.099308,26.627073 
	C55.468655,26.331438 54.837997,26.035803 54.207344,25.740168 
	C54.831318,30.110620 55.158562,34.549358 56.145153,38.836361 
	C57.849072,46.240299 59.962498,53.549999 61.586029,60.939892 
	C60.840183,60.994247 60.412415,61.007946 59.866173,60.752140 
	C59.126015,60.072182 58.504333,59.661728 57.815613,58.925957 
	C56.838768,58.060184 55.928963,57.519730 55.049706,56.712135 
	C55.002590,56.283440 54.924927,56.121880 54.905769,55.579529 
	C53.594151,51.046505 52.224037,46.894268 50.615608,42.019814 
	C48.865490,47.301483 47.428188,51.639114 45.707695,56.071163 
	C44.944237,56.428188 44.463970,56.690792 43.647141,57.013939 
	C42.193539,58.129692 41.076496,59.184902 39.639236,60.035019 
	C39.753925,57.973026 40.225567,56.123844 40.617599,54.257938 
	C42.685444,44.415909 48.506329,35.364243 46.835526,24.735859 
	C41.858780,25.417248 38.632980,22.814484 36.068939,18.974470 
	C34.084995,12.954777 32.017582,6.926630 37.909428,1.347687 
	C39.066669,1.000000 40.133339,1.000000 41.707291,1.333098 
	C47.993599,4.516534 49.006798,10.335714 50.943035,17.312881 
	C52.685436,9.645185 55.242840,4.216279 61.000000,1.000000 
	C61.444447,1.000000 61.888889,1.000000 62.666668,1.000000 
M38.877750,3.889700 
	C34.367622,9.676122 35.826637,17.996210 41.645687,21.146061 
	C44.634754,22.764042 46.497772,21.707973 47.689705,19.225357 
	C49.919376,14.581294 44.865223,4.966897 38.877750,3.889700 
M53.991009,16.490110 
	C54.856647,18.264803 55.499374,21.325695 56.638374,21.523098 
	C58.507557,21.847046 61.372688,20.891827 62.617683,19.444004 
	C65.434044,16.168806 66.997025,12.117253 65.065681,7.685068 
	C64.482254,6.346182 63.413601,4.231441 62.547619,4.221747 
	C61.043514,4.204908 58.889637,5.165221 58.138905,6.402090 
	C56.397743,9.270739 55.331451,12.549011 53.991009,16.490110 
z"/>
<path fill="#FBFBFB" opacity="1.000000" stroke="none" 
	d="
M60.531731,1.000000 
	C55.242840,4.216279 52.685436,9.645185 50.943035,17.312881 
	C49.006798,10.335714 47.993599,4.516534 42.107285,1.333098 
	C48.021152,1.000000 54.042305,1.000000 60.531731,1.000000 
z"/>
<path fill="#A29168" opacity="1.000000" stroke="none" 
	d="
M91.625000,1.000000 
	C93.745934,3.597493 93.745934,3.597493 90.307541,11.720958 
	C89.784859,8.384760 89.262184,5.048562 88.869751,1.356182 
	C89.750000,1.000000 90.500000,1.000000 91.625000,1.000000 
z"/>
<path fill="#A39169" opacity="1.000000" stroke="none" 
	d="
M12.625000,1.000000 
	C12.668407,4.564728 12.336815,8.129456 12.005222,11.694183 
	C11.402249,11.691714 10.799276,11.689246 10.196303,11.686777 
	C11.861823,8.077964 6.073486,5.550937 9.872179,1.325542 
	C10.750000,1.000000 11.500000,1.000000 12.625000,1.000000 
z"/>
<path fill="#A08E65" opacity="1.000000" stroke="none" 
	d="
M11.981529,91.982117 
	C12.402648,94.752495 12.823768,97.522881 13.122443,100.646629 
	C12.250000,101.000000 11.500000,101.000000 10.375000,101.000000 
	C6.185357,98.245621 10.749058,95.504486 10.343998,92.360870 
	C11.110484,91.971878 11.546007,91.976997 11.981529,91.982117 
z"/>
<path fill="#9F8D64" opacity="1.000000" stroke="none" 
	d="
M89.375000,101.000000 
	C89.333824,98.250977 89.667641,95.501953 90.335960,92.357925 
	C91.109772,91.969788 91.549088,91.976654 91.988403,91.983513 
	C92.318657,93.476646 92.852783,94.961090 92.916885,96.465561 
	C92.971512,97.747978 92.485519,99.053429 92.119354,100.674347 
	C91.250000,101.000000 90.500000,101.000000 89.375000,101.000000 
z"/>
<path fill="#DFD4BA" opacity="1.000000" stroke="none" 
	d="
M61.904114,60.899235 
	C59.962498,53.549999 57.849072,46.240299 56.145153,38.836361 
	C55.158562,34.549358 54.831318,30.110620 54.207344,25.740168 
	C54.837997,26.035803 55.468655,26.331438 56.099308,26.627073 
	C59.170170,24.172274 62.241028,21.717474 65.631256,19.121515 
	C71.653946,18.984348 77.357269,18.988342 83.531197,19.452047 
	C83.996407,40.971233 83.991013,62.030712 83.985626,83.090187 
	C81.343681,83.078644 78.701744,83.067108 75.546158,82.746658 
	C74.689285,81.917137 74.346046,81.396507 73.967003,80.504517 
	C73.268669,77.613571 72.776939,75.031860 71.890022,72.593903 
	C71.169586,70.613533 69.975044,68.805634 68.841125,66.629974 
	C67.448570,65.551682 66.205650,64.764664 64.795494,63.709877 
	C63.720207,62.594486 62.812160,61.746861 61.904114,60.899235 
z"/>
<path fill="#DED3BA" opacity="1.000000" stroke="none" 
	d="
M35.597046,18.985062 
	C38.632980,22.814484 41.858780,25.417248 46.835526,24.735859 
	C48.506329,35.364243 42.685444,44.415909 40.617599,54.257938 
	C40.225567,56.123844 39.753925,57.973026 39.473511,60.298557 
	C38.423992,61.475105 37.219975,62.183022 35.649971,62.934181 
	C34.393993,63.660667 32.958004,64.189713 32.713573,65.055252 
	C31.889116,67.974686 31.487963,71.013657 30.690739,74.159309 
	C29.988571,74.873924 29.520596,75.436150 28.720772,76.170311 
	C28.250868,77.571304 28.112814,78.800354 27.991337,80.023056 
	C28.007915,80.016708 28.022181,79.984695 27.701025,80.140800 
	C27.191984,81.226173 27.004099,82.155449 26.816216,83.084717 
	C24.176546,83.075424 21.536875,83.066132 18.450123,82.592300 
	C18.002943,61.077667 18.002846,40.027588 18.002747,18.977509 
	C23.710217,18.983559 29.417686,18.989607 35.597046,18.985062 
z"/>
<path fill="#E9E3D0" opacity="1.000000" stroke="none" 
	d="
M18.001099,18.541451 
	C18.002846,40.027588 18.002943,61.077667 18.007795,82.605247 
	C18.012550,84.858704 18.012550,86.634659 18.012550,88.699654 
	C13.468690,88.699654 9.574562,88.699654 5.002638,88.699654 
	C5.002638,86.638870 5.002639,84.867439 5.002638,83.096016 
	C5.002634,61.969753 5.001818,40.843491 5.003096,19.717228 
	C5.003502,12.999850 5.006054,13.000006 11.703934,13.002524 
	C13.509382,13.003203 15.314831,13.002626 17.635048,13.002626 
	C17.773283,14.938353 17.886368,16.521873 18.001099,18.541451 
z"/>
<path fill="#E9E3D0" opacity="1.000000" stroke="none" 
	d="
M83.987068,83.519592 
	C83.991013,62.030712 83.996407,40.971233 83.998795,19.439734 
	C83.995789,17.182369 83.995789,15.397029 83.995789,13.315790 
	C88.494110,13.315790 92.388893,13.315790 96.641052,13.315790 
	C96.641052,38.419960 96.641052,63.279335 96.641052,88.568649 
	C92.702850,88.568649 88.817375,88.568649 84.351463,88.568649 
	C84.236511,87.105484 84.112511,85.527237 83.987068,83.519592 
z"/>
<path fill="#687781" opacity="1.000000" stroke="none" 
	d="
M26.881084,83.493622 
	C27.004099,82.155449 27.191984,81.226173 27.817146,80.545273 
	C28.048021,85.265968 28.819666,88.709282 34.665932,87.917160 
	C35.947742,87.743484 37.394936,88.790436 38.765965,89.275253 
	C38.700027,89.704147 38.634087,90.133034 38.568150,90.561928 
	C36.688713,90.895035 34.809273,91.228149 32.929836,91.561256 
	C34.155540,92.477486 35.370392,92.735870 36.593349,92.782753 
	C40.045033,92.915100 43.500046,92.960648 46.973679,93.419960 
	C48.601803,97.210304 52.467663,98.868279 55.261963,97.406738 
	C58.388290,95.771568 61.395527,93.636452 64.729515,92.729134 
	C71.020668,91.017044 73.609756,86.935463 74.002808,80.875885 
	C74.346046,81.396507 74.689285,81.917137 75.108627,82.760864 
	C75.073730,88.476959 73.385117,92.755699 67.501823,94.179070 
	C66.724213,94.367203 65.723778,94.723007 65.350616,95.325661 
	C61.635647,101.325409 55.708984,99.962563 50.204945,99.987366 
	C49.228237,99.991768 47.669708,100.139923 47.364727,99.631226 
	C44.780136,95.320229 40.149033,96.141968 36.351955,95.198219 
	C29.211761,93.423561 27.116402,91.195480 26.881084,83.493622 
z"/>
<path fill="#D4B272" opacity="1.000000" stroke="none" 
	d="
M12.391294,91.924965 
	C11.546007,91.976997 11.110484,91.971878 10.348338,91.974182 
	C8.456193,91.789970 6.890673,91.598343 5.325152,91.406715 
	C5.336193,91.086006 5.347233,90.765289 5.358274,90.444580 
	C9.376999,90.444580 13.395723,90.444580 17.414448,90.444580 
	C17.473301,90.744568 17.532152,91.044563 17.591003,91.344551 
	C15.994355,91.518974 14.397708,91.693398 12.391294,91.924965 
z"/>
<path fill="#D4B272" opacity="1.000000" stroke="none" 
	d="
M92.395325,91.926102 
	C91.549088,91.976654 91.109772,91.969788 90.341026,91.973221 
	C88.174889,91.790596 86.338188,91.597679 84.501480,91.404755 
	C84.539757,91.052658 84.578033,90.700562 84.616310,90.348465 
	C88.606750,90.348465 92.597191,90.348465 96.587631,90.348465 
	C96.627365,90.682426 96.667107,91.016396 96.706841,91.350357 
	C95.405312,91.523140 94.103783,91.695923 92.395325,91.926102 
z"/>
<path fill="#C4CFD7" opacity="1.000000" stroke="none" 
	d="
M46.953747,93.040405 
	C43.500046,92.960648 40.045033,92.915100 36.593349,92.782753 
	C35.370392,92.735870 34.155540,92.477486 32.929836,91.561256 
	C34.809273,91.228149 36.688713,90.895035 38.568150,90.561928 
	C38.634087,90.133034 38.700027,89.704147 38.765965,89.275253 
	C37.394936,88.790436 35.947742,87.743484 34.665932,87.917160 
	C28.819666,88.709282 28.048021,85.265968 28.138302,80.389175 
	C28.022181,79.984695 28.007915,80.016708 28.356890,79.897232 
	C28.821449,78.517967 28.937035,77.258171 29.052620,75.998375 
	C29.520596,75.436150 29.988571,74.873924 30.980873,74.169830 
	C31.695402,74.060173 31.885603,74.092384 32.090946,74.461479 
	C36.810791,81.848740 39.587021,82.848686 45.034962,77.463531 
	C42.189228,76.226631 39.563339,75.085289 37.079315,73.669418 
	C37.908875,72.748337 38.596569,72.101784 39.240257,71.496605 
	C37.466068,69.211754 30.525894,69.306740 36.047245,64.355499 
	C39.435551,65.312088 42.731464,65.872192 47.272858,66.643951 
	C43.241783,62.004059 43.241783,62.004059 35.969215,63.691933 
	C35.992134,63.246769 36.004044,63.068851 36.015957,62.890934 
	C37.219975,62.183022 38.423992,61.475105 39.793732,60.503654 
	C41.076496,59.184902 42.193539,58.129692 43.739510,57.267975 
	C44.457939,57.675293 44.747440,57.889118 45.068218,58.448853 
	C50.248512,64.755623 52.333927,64.830093 57.882648,59.251274 
	C58.504333,59.661728 59.126015,60.072182 59.880447,61.061775 
	C60.687801,62.380615 61.362411,63.120308 61.892868,64.184654 
	C60.178940,65.951981 58.609161,67.394661 57.039379,68.837341 
	C57.230820,69.352196 57.422260,69.867043 57.613697,70.381897 
	C60.471447,70.001259 63.329201,69.620621 66.186951,69.239983 
	C65.795845,67.533134 65.404739,65.826294 64.983780,64.090149 
	C64.953926,64.060844 64.962730,63.977650 64.962730,63.977650 
	C66.205650,64.764664 67.448570,65.551682 68.847183,67.053802 
	C69.736465,71.433289 70.642853,75.074760 71.132729,78.771431 
	C71.387947,80.697289 71.646416,83.601089 70.585548,84.489540 
	C69.062912,85.764725 66.333809,85.983582 64.124794,85.967346 
	C60.564808,85.941185 57.008934,85.355492 53.451321,85.006165 
	C53.259293,85.615700 53.067265,86.225235 52.875237,86.834770 
	C55.039417,88.106644 57.203602,89.378525 59.779842,90.892563 
	C55.833481,94.581421 51.117466,92.376030 46.953747,93.040405 
M61.443619,73.059135 
	C56.854721,74.717789 50.702957,74.188278 49.616673,81.157425 
	C59.304893,83.699715 64.142105,82.496773 68.012657,76.316109 
	C66.090042,75.225670 64.158150,74.129982 61.443619,73.059135 
M50.615704,69.514999 
	C48.334877,68.886810 46.054050,68.258629 43.773220,67.630440 
	C45.109055,72.873108 47.741329,72.131470 50.615704,69.514999 
z"/>
<path fill="#F7F5F2" opacity="1.000000" stroke="none" 
	d="
M39.257019,3.699162 
	C44.865223,4.966897 49.919376,14.581294 47.689705,19.225357 
	C46.497772,21.707973 44.634754,22.764042 41.645687,21.146061 
	C35.826637,17.996210 34.367622,9.676122 39.257019,3.699162 
z"/>
<path fill="#F6F5F2" opacity="1.000000" stroke="none" 
	d="
M53.991295,16.075668 
	C55.331451,12.549011 56.397743,9.270739 58.138905,6.402090 
	C58.889637,5.165221 61.043514,4.204908 62.547619,4.221747 
	C63.413601,4.231441 64.482254,6.346182 65.065681,7.685068 
	C66.997025,12.117253 65.434044,16.168806 62.617683,19.444004 
	C61.372688,20.891827 58.507557,21.847046 56.638374,21.523098 
	C55.499374,21.325695 54.856647,18.264803 53.991295,16.075668 
z"/>
<path fill="#D4C9B1" opacity="1.000000" stroke="none" 
	d="
M45.990883,55.976742 
	C47.428188,51.639114 48.865490,47.301483 50.615608,42.019814 
	C52.224037,46.894268 53.594151,51.046505 54.465500,55.572979 
	C51.308117,55.957058 48.649498,55.966900 45.990883,55.976742 
z"/>
<path fill="#DDE4EA" opacity="1.000000" stroke="none" 
	d="
M57.815613,58.925957 
	C52.333927,64.830093 50.248512,64.755623 45.456604,58.406715 
	C48.882195,57.672207 51.950672,57.325745 55.019154,56.979279 
	C55.928963,57.519730 56.838768,58.060184 57.815613,58.925957 
z"/>
<path fill="#90A0AB" opacity="1.000000" stroke="none" 
	d="
M55.049706,56.712139 
	C51.950672,57.325745 48.882195,57.672207 45.425327,58.060806 
	C44.747440,57.889118 44.457939,57.675293 44.076073,57.207432 
	C44.463970,56.690792 44.944237,56.428188 45.707695,56.071163 
	C48.649498,55.966900 51.308117,55.957058 54.406998,55.953773 
	C54.924927,56.121880 55.002590,56.283440 55.049706,56.712139 
z"/>
<path fill="#90A0AB" opacity="1.000000" stroke="none" 
	d="
M62.037018,63.860004 
	C61.362411,63.120308 60.687801,62.380615 59.998920,61.331284 
	C60.412415,61.007946 60.840183,60.994247 61.586029,60.939892 
	C62.812160,61.746861 63.720207,62.594486 64.795494,63.709877 
	C64.962730,63.977650 64.953926,64.060844 64.610596,64.056595 
	C63.523849,63.988228 62.780434,63.924118 62.037018,63.860004 
z"/>
<path fill="#99AAB5" opacity="1.000000" stroke="none" 
	d="
M46.973679,93.419960 
	C51.117466,92.376030 55.833481,94.581421 59.779842,90.892563 
	C57.203602,89.378525 55.039417,88.106644 52.875237,86.834770 
	C53.067265,86.225235 53.259293,85.615700 53.451321,85.006165 
	C57.008934,85.355492 60.564808,85.941185 64.124794,85.967346 
	C66.333809,85.983582 69.062912,85.764725 70.585548,84.489540 
	C71.646416,83.601089 71.387947,80.697289 71.132729,78.771431 
	C70.642853,75.074760 69.736465,71.433289 68.996811,67.345078 
	C69.975044,68.805634 71.169586,70.613533 71.890022,72.593903 
	C72.776939,75.031860 73.268669,77.613571 73.967003,80.504517 
	C73.609756,86.935463 71.020668,91.017044 64.729515,92.729134 
	C61.395527,93.636452 58.388290,95.771568 55.261963,97.406738 
	C52.467663,98.868279 48.601803,97.210304 46.973679,93.419960 
z"/>
<path fill="#99AAB4" opacity="1.000000" stroke="none" 
	d="
M35.649971,62.934181 
	C36.004044,63.068851 35.992134,63.246769 35.989883,63.712311 
	C35.999546,63.999939 35.954853,63.959011 35.954853,63.959011 
	C30.525894,69.306740 37.466068,69.211754 39.240257,71.496605 
	C38.596569,72.101784 37.908875,72.748337 36.676033,73.712234 
	C34.779194,74.061256 33.427502,74.092926 32.075806,74.124603 
	C31.885603,74.092384 31.695402,74.060173 31.215065,74.017441 
	C31.487963,71.013657 31.889116,67.974686 32.713573,65.055252 
	C32.958004,64.189713 34.393993,63.660667 35.649971,62.934181 
z"/>
<path fill="#687781" opacity="1.000000" stroke="none" 
	d="
M28.720772,76.170311 
	C28.937035,77.258171 28.821449,78.517967 28.340313,79.903587 
	C28.112814,78.800354 28.250868,77.571304 28.720772,76.170311 
z"/>
<path fill="#E1E8ED" opacity="1.000000" stroke="none" 
	d="
M61.834942,73.046707 
	C64.158150,74.129982 66.090042,75.225670 68.012657,76.316109 
	C64.142105,82.496773 59.304893,83.699715 49.616673,81.157425 
	C50.702957,74.188278 56.854721,74.717789 61.834942,73.046707 
z"/>
<path fill="#E1E8ED" opacity="1.000000" stroke="none" 
	d="
M32.090946,74.461472 
	C33.427502,74.092926 34.779194,74.061256 36.534168,73.986763 
	C39.563339,75.085289 42.189228,76.226631 45.034962,77.463531 
	C39.587021,82.848686 36.810791,81.848740 32.090946,74.461472 
z"/>
<path fill="#E1E8ED" opacity="1.000000" stroke="none" 
	d="
M61.892868,64.184654 
	C62.780434,63.924118 63.523849,63.988228 64.640450,64.085892 
	C65.404739,65.826294 65.795845,67.533134 66.186951,69.239983 
	C63.329201,69.620621 60.471447,70.001259 57.613697,70.381897 
	C57.422260,69.867043 57.230820,69.352196 57.039379,68.837341 
	C58.609161,67.394661 60.178940,65.951981 61.892868,64.184654 
z"/>
<path fill="#E1E8ED" opacity="1.000000" stroke="none" 
	d="
M35.978878,63.979561 
	C43.241783,62.004059 43.241783,62.004059 47.272858,66.643951 
	C42.731464,65.872192 39.435551,65.312088 36.047245,64.355499 
	C35.954853,63.959011 35.999546,63.999939 35.978878,63.979561 
z"/>
<path fill="#9BABB6" opacity="1.000000" stroke="none" 
	d="
M50.617012,69.881409 
	C47.741329,72.131470 45.109055,72.873108 43.773220,67.630440 
	C46.054050,68.258629 48.334877,68.886810 50.617012,69.881409 
z"/>
</svg>